<svg width="41" height="41" viewBox="0 0 41 41" fill="none" xmlns="http://www.w3.org/2000/svg">
<rect x="1" y="1" width="39" height="39" rx="19.5" fill="url(#paint0_radial_38_267)" stroke="white"/>
<path d="M20.5 12.3072C23.1506 12.3072 23.5121 12.3072 24.5964 12.3072C25.5602 12.3072 26.0422 12.5482 26.4036 12.6687C26.8855 12.9096 27.247 13.0301 27.6084 13.3916C27.9699 13.753 28.2108 14.1145 28.3313 14.5964C28.4518 14.9578 28.5723 15.4398 28.6928 16.4036C28.6928 17.488 28.6928 17.7289 28.6928 20.5C28.6928 23.2711 28.6928 23.5121 28.6928 24.5964C28.6928 25.5602 28.4518 26.0422 28.3313 26.4036C28.0904 26.8855 27.9699 27.247 27.6084 27.6084C27.247 27.9699 26.8855 28.2108 26.4036 28.3313C26.0422 28.4518 25.5602 28.5723 24.5964 28.6928C23.5121 28.6928 23.2711 28.6928 20.5 28.6928C17.7289 28.6928 17.488 28.6928 16.4036 28.6928C15.4398 28.6928 14.9578 28.4518 14.5964 28.3313C14.1145 28.0904 13.753 27.9699 13.3916 27.6084C13.0301 27.247 12.7892 26.8855 12.6687 26.4036C12.5482 26.0422 12.4277 25.5602 12.3072 24.5964C12.3072 23.5121 12.3072 23.2711 12.3072 20.5C12.3072 17.7289 12.3072 17.488 12.3072 16.4036C12.3072 15.4398 12.5482 14.9578 12.6687 14.5964C12.9096 14.1145 13.0301 13.753 13.3916 13.3916C13.753 13.0301 14.1145 12.7892 14.5964 12.6687C14.9578 12.5482 15.4398 12.4277 16.4036 12.3072C17.488 12.3072 17.8494 12.3072 20.5 12.3072ZM20.5 10.5C17.7289 10.5 17.488 10.5 16.4036 10.5C15.3193 10.5 14.5964 10.741 13.994 10.9819C13.3916 11.2229 12.7892 11.5843 12.1867 12.1867C11.5843 12.7892 11.3434 13.2711 10.9819 13.994C10.741 14.5964 10.6205 15.3193 10.5 16.4036C10.5 17.488 10.5 17.8494 10.5 20.5C10.5 23.2711 10.5 23.5121 10.5 24.5964C10.5 25.6807 10.741 26.4036 10.9819 27.006C11.2229 27.6084 11.5843 28.2108 12.1867 28.8133C12.7892 29.4157 13.2711 29.6566 13.994 30.0181C14.5964 30.259 15.3193 30.3795 16.4036 30.5C17.488 30.5 17.8494 30.5 20.5 30.5C23.1506 30.5 23.5121 30.5 24.5964 30.5C25.6807 30.5 26.4036 30.259 27.006 30.0181C27.6084 29.7771 28.2108 29.4157 28.8133 28.8133C29.4157 28.2108 29.6566 27.7289 30.0181 27.006C30.259 26.4036 30.3795 25.6807 30.5 24.5964C30.5 23.5121 30.5 23.1506 30.5 20.5C30.5 17.8494 30.5 17.488 30.5 16.4036C30.5 15.3193 30.259 14.5964 30.0181 13.994C29.7771 13.3916 29.4157 12.7892 28.8133 12.1867C28.2108 11.5843 27.7289 11.3434 27.006 10.9819C26.4036 10.741 25.6807 10.6205 24.5964 10.5C23.5121 10.5 23.2711 10.5 20.5 10.5Z" fill="white"/>
<path d="M20.5 15.3193C17.6084 15.3193 15.3193 17.6084 15.3193 20.5C15.3193 23.3916 17.6084 25.6807 20.5 25.6807C23.3916 25.6807 25.6807 23.3916 25.6807 20.5C25.6807 17.6084 23.3916 15.3193 20.5 15.3193ZM20.5 23.8735C18.6928 23.8735 17.1265 22.4277 17.1265 20.5C17.1265 18.6928 18.5723 17.1265 20.5 17.1265C22.3072 17.1265 23.8735 18.5723 23.8735 20.5C23.8735 22.3072 22.3072 23.8735 20.5 23.8735Z" fill="white"/>
<path d="M25.8012 16.4036C26.4666 16.4036 27.006 15.8642 27.006 15.1988C27.006 14.5334 26.4666 13.994 25.8012 13.994C25.1358 13.994 24.5964 14.5334 24.5964 15.1988C24.5964 15.8642 25.1358 16.4036 25.8012 16.4036Z" fill="white"/>
<defs>
<radialGradient id="paint0_radial_38_267" cx="0" cy="0" r="1" gradientUnits="userSpaceOnUse" gradientTransform="translate(41.3047 1.3125) scale(92.3719)">
<stop stop-color="#F9ED32"/>
<stop offset="0.36" stop-color="#EE2A7B"/>
<stop offset="0.44" stop-color="#D22A8A"/>
<stop offset="0.6" stop-color="#8B2AB2"/>
<stop offset="0.83" stop-color="#1B2AF0"/>
<stop offset="0.88" stop-color="#002AFF"/>
</radialGradient>
</defs>
</svg>
