<svg width="18" height="18" viewBox="0 0 18 18" fill="none" xmlns="http://www.w3.org/2000/svg">
<path fill-rule="evenodd" clip-rule="evenodd" d="M8.99968 0C9.65112 0 10.1839 0.556487 10.1839 1.23687V5.83473C10.1839 6.51512 9.65112 7.07161 8.99968 7.07161C8.34824 7.07161 7.81543 6.51512 7.81543 5.83473V1.23687C7.81543 0.556487 8.34824 0 8.99968 0Z" fill="#00A0E4"/>
<path fill-rule="evenodd" clip-rule="evenodd" d="M0.0576508 6.78592C0.259014 6.13877 0.930566 5.78142 1.54993 5.99173L5.73682 7.4126C6.35644 7.62291 6.69858 8.32403 6.49721 8.97118C6.29585 9.61807 5.6243 9.97541 5.00493 9.76537L0.818046 8.34451C0.198682 8.13419 -0.143458 7.4328 0.0576508 6.78592Z" fill="#00A0E4"/>
<path fill-rule="evenodd" clip-rule="evenodd" d="M3.47325 17.765C2.94629 17.3651 2.82843 16.5877 3.2113 16.0373L5.79899 12.3174C6.18186 11.767 6.92622 11.6439 7.45317 12.0438C7.98013 12.4437 8.09799 13.2211 7.71512 13.7715L5.12744 17.4914C4.74457 18.0418 4.00021 18.1649 3.47325 17.765Z" fill="#00A0E4"/>
<path fill-rule="evenodd" clip-rule="evenodd" d="M14.5269 17.7647C13.9999 18.1646 13.2556 18.0415 12.8727 17.4912L10.285 13.7712C9.90216 13.2209 10.02 12.4434 10.547 12.0438C11.0739 11.6439 11.8183 11.767 12.2012 12.3174L14.7889 16.0371C15.1717 16.5874 15.0539 17.3649 14.5269 17.7647Z" fill="#00A0E4"/>
<path fill-rule="evenodd" clip-rule="evenodd" d="M17.9422 6.78543C18.1433 7.43231 17.8011 8.13371 17.1818 8.34402L12.9949 9.76461C12.3753 9.97492 11.704 9.61758 11.5026 8.9707C11.3012 8.32354 11.6434 7.62215 12.263 7.41211L16.4499 5.99125C17.0692 5.78093 17.7408 6.13828 17.9422 6.78543Z" fill="#00A0E4"/>
</svg>
