<svg width="10" height="17" viewBox="0 0 10 17" fill="none" xmlns="http://www.w3.org/2000/svg">
<path d="M4.5 10.3H3.12986C1.72143 10.3 1.01721 10.3 0.72228 9.83846C0.427353 9.37692 0.723212 8.73786 1.31493 7.45975L4.04627 1.56006C4.42045 0.751818 4.60755 0.347696 4.80377 0.390915C5 0.434134 5 0.879465 5 1.77013V6.2C5 6.4357 5 6.55355 5.07322 6.62678C5.14645 6.7 5.2643 6.7 5.5 6.7H6.87014C8.27857 6.7 8.98279 6.7 9.27772 7.16154C9.57265 7.62308 9.27679 8.26214 8.68507 9.54024L5.95373 15.4399C5.57955 16.2482 5.39245 16.6523 5.19623 16.6091C5 16.5659 5 16.1205 5 15.2299V10.8C5 10.5643 5 10.4464 4.92678 10.3732C4.85355 10.3 4.7357 10.3 4.5 10.3Z" fill="#FB4242"/>
</svg>
