<svg width="27" height="31" viewBox="0 0 27 31" fill="none" xmlns="http://www.w3.org/2000/svg">
<path fill-rule="evenodd" clip-rule="evenodd" d="M9.82288 0.0843506C8.16602 0.0843506 6.82288 1.4275 6.82288 3.08435H5.72998C3.43068 3.08435 2.28103 3.08435 1.45519 3.63617C1.09767 3.87505 0.790701 4.18202 0.551815 4.53954C0 5.36539 0 6.51504 0 8.81433V24.3671C0 27.4542 0 28.9977 0.959013 29.9567C1.91803 30.9157 3.46153 30.9157 6.54855 30.9157H19.6457C22.7327 30.9157 24.2762 30.9157 25.2352 29.9567C26.1942 28.9977 26.1942 27.4542 26.1942 24.3671V8.81433C26.1942 6.51503 26.1942 5.36539 25.6424 4.53954C25.4035 4.18202 25.0965 3.87505 24.739 3.63617C23.9132 3.08435 22.7635 3.08435 20.4642 3.08435H19.3714C19.3714 1.4275 18.0283 0.0843506 16.3714 0.0843506H9.82288ZM10.4601 3.08435C10.4601 2.53207 10.9078 2.08435 11.4601 2.08435H14.7343C15.2866 2.08435 15.7343 2.53207 15.7343 3.08435C15.7343 3.63664 15.2866 4.08435 14.7343 4.08435H11.4601C10.9078 4.08435 10.4601 3.63664 10.4601 3.08435ZM8.18569 13.0443C7.35726 13.0443 6.68569 13.7159 6.68569 14.5443C6.68569 15.3727 7.35726 16.0443 8.18569 16.0443H18.0085C18.8369 16.0443 19.5085 15.3727 19.5085 14.5443C19.5085 13.7159 18.8369 13.0443 18.0085 13.0443H8.18569ZM8.18569 19.5928C7.35726 19.5928 6.68569 20.2644 6.68569 21.0928C6.68569 21.9213 7.35726 22.5928 8.18569 22.5928H14.7342C15.5627 22.5928 16.2342 21.9213 16.2342 21.0928C16.2342 20.2644 15.5627 19.5928 14.7342 19.5928H8.18569Z" fill="#FB4242"/>
</svg>
