<svg width="32" height="35" viewBox="0 0 32 35" fill="none" xmlns="http://www.w3.org/2000/svg">
<path fill-rule="evenodd" clip-rule="evenodd" d="M31.5 14.243C31.5 8.80075 31.5 6.07961 30.1939 4.12487C29.6285 3.27865 28.9019 2.55208 28.0557 1.98665C26.1009 0.680542 23.3798 0.680542 17.9375 0.680542H14.0625C8.62021 0.680542 5.89906 0.680542 3.94433 1.98665C3.09811 2.55208 2.37154 3.27865 1.80611 4.12487C0.5 6.07961 0.5 8.80075 0.5 14.243C0.5 19.6853 0.5 22.4065 1.80611 24.3612C2.37154 25.2074 3.09811 25.934 3.94433 26.4994C5.65195 27.6404 7.94445 27.7847 12.125 27.8029V27.8056L15.1056 33.7667C15.4741 34.5038 16.5259 34.5038 16.8944 33.7667L19.875 27.8056V27.8029C24.0555 27.7847 26.3481 27.6404 28.0557 26.4994C28.9019 25.934 29.6285 25.2074 30.1939 24.3612C31.5 22.4065 31.5 19.6853 31.5 14.243ZM8.25 16.1805C9.32005 16.1805 10.1875 15.3131 10.1875 14.243C10.1875 13.173 9.32005 12.3055 8.25 12.3055C7.17995 12.3055 6.3125 13.173 6.3125 14.243C6.3125 15.3131 7.17995 16.1805 8.25 16.1805ZM17.9375 14.243C17.9375 15.3131 17.0701 16.1805 16 16.1805C14.9299 16.1805 14.0625 15.3131 14.0625 14.243C14.0625 13.173 14.9299 12.3055 16 12.3055C17.0701 12.3055 17.9375 13.173 17.9375 14.243ZM25.6875 14.243C25.6875 15.3131 24.8201 16.1805 23.75 16.1805C22.6799 16.1805 21.8125 15.3131 21.8125 14.243C21.8125 13.173 22.6799 12.3055 23.75 12.3055C24.8201 12.3055 25.6875 13.173 25.6875 14.243Z" fill="#FB4242"/>
</svg>
