<svg width="96" height="69" viewBox="0 0 96 69" fill="none" xmlns="http://www.w3.org/2000/svg">
<path d="M30.4 56.2857H65.6M30.4 56.2857C30.4 61.0986 26.4601 65 21.6 65C16.7399 65 12.8 61.0986 12.8 56.2857M30.4 56.2857C30.4 51.4728 26.4601 47.5714 21.6 47.5714C16.7399 47.5714 12.8 51.4728 12.8 56.2857M65.6 56.2857C65.6 61.0986 69.5398 65 74.4 65C79.2602 65 83.2 61.0986 83.2 56.2857M65.6 56.2857C65.6 51.4728 69.5398 47.5714 74.4 47.5714C79.2602 47.5714 83.2 51.4728 83.2 56.2857M12.8 56.2857H11.04C8.57578 56.2857 7.34365 56.2857 6.40244 55.8108C5.57454 55.3929 4.90143 54.7267 4.47956 53.9067C4 52.9747 4 51.7547 4 49.3143V44.0857C4 39.2053 4 36.7648 4.95916 34.9009C5.80281 33.2613 7.14904 31.928 8.80489 31.0927C10.6873 30.1429 13.1516 30.1429 18.08 30.1429H70.88C74.1501 30.1429 75.7851 30.1429 77.1531 30.3572C84.6841 31.5385 90.5907 37.3875 91.7835 44.8452C92 46.1998 92 47.8189 92 51.0571C92 51.8667 92 52.2715 91.9459 52.61C91.6476 54.4745 90.1709 55.9367 88.2882 56.2321C87.9463 56.2857 87.5375 56.2857 86.72 56.2857H83.2M39.2 4V30.1429M12.8 30.1429L14.2587 21.476C15.3036 15.2673 15.8261 12.1629 17.3905 9.83334C18.7695 7.77982 20.707 6.15448 22.9792 5.1451C25.5569 4 28.735 4 35.0913 4H49.8968C54.0293 4 56.0956 4 57.9713 4.56403C59.6318 5.0634 61.1762 5.88203 62.5169 6.97314C64.0314 8.20565 65.1776 9.90816 67.47 13.3131L78.8 30.1429" stroke="white" stroke-width="7" stroke-linecap="round" stroke-linejoin="round"/>
</svg>
