<svg width="86" height="69" viewBox="0 0 86 69" fill="none" xmlns="http://www.w3.org/2000/svg">
<path d="M79.8333 30.1429L72.2049 15.3492C70.0963 11.2265 69.042 9.16517 67.4894 7.66052C66.1166 6.32976 64.4691 5.31899 62.6642 4.69997C60.6237 4 58.3183 4 53.7077 4H32.2924C27.6818 4 25.3765 4 23.3357 4.69997C21.5308 5.31899 19.8835 6.32976 18.5106 7.66052C16.9581 9.16517 15.9038 11.2265 13.7952 15.3492L6.16667 30.1429M79.8333 30.1429C80.6918 31.8217 80.9851 32.5158 81.288 33.3976C81.5567 34.1806 81.7513 34.9876 81.8683 35.808C82 36.7313 82 37.675 82 39.563V44.0857C82 51.4066 82 55.0666 80.583 57.863C79.3367 60.3226 77.3482 62.3221 74.902 63.5752C72.1209 65 68.4809 65 61.2 65H24.8C17.5193 65 13.879 65 11.0981 63.5752C8.65201 62.3221 6.66327 60.3226 5.41691 57.863C4 55.0666 4 51.4066 4 44.0857V39.563C4 37.675 4 36.7313 4.13178 35.808C4.24878 34.9876 4.44308 34.1806 4.71205 33.3976C5.01491 32.5158 5.30806 31.8217 6.16667 30.1429M79.8333 30.1429H6.16667M56 47.5714H64.6667" stroke="white" stroke-width="7" stroke-linecap="round" stroke-linejoin="round"/>
</svg>
