<svg width="81" height="69" viewBox="0 0 81 69" fill="none" xmlns="http://www.w3.org/2000/svg">
<path d="M4 18.2333L15.0387 27.4573C15.7675 28.0665 16.6862 28.4 17.635 28.4H63.3648C64.3138 28.4 65.2324 28.0665 65.9612 27.4573L77 18.2333M18.1944 42.6333H18.235M62.8056 42.6333H62.8461M24.9293 4H56.0709C58.9816 4 61.6692 5.56392 63.113 8.09806L74.8627 28.716C76.2631 31.1739 77 33.9555 77 36.7867V60.9333C77 63.1794 75.1843 65 72.9444 65H68.8889C66.649 65 64.8333 63.1794 64.8333 60.9333V56.8667H16.1667V60.9333C16.1667 63.1794 14.3509 65 12.1111 65H8.05556C5.81575 65 4 63.1794 4 60.9333V36.7867C4 33.9555 4.73673 31.1739 6.1374 28.716L17.8869 8.09806C19.331 5.56392 22.0185 4 24.9293 4ZM20.2222 42.6333C20.2222 43.7561 19.3143 44.6667 18.1944 44.6667C17.0745 44.6667 16.1667 43.7561 16.1667 42.6333C16.1667 41.5105 17.0745 40.6 18.1944 40.6C19.3143 40.6 20.2222 41.5105 20.2222 42.6333ZM64.8333 42.6333C64.8333 43.7561 63.9253 44.6667 62.8056 44.6667C61.6858 44.6667 60.7778 43.7561 60.7778 42.6333C60.7778 41.5105 61.6858 40.6 62.8056 40.6C63.9253 40.6 64.8333 41.5105 64.8333 42.6333Z" stroke="white" stroke-width="7" stroke-linecap="round" stroke-linejoin="round"/>
</svg>
