<svg width="31" height="31" viewBox="0 0 31 31" fill="none" xmlns="http://www.w3.org/2000/svg">
<path fill-rule="evenodd" clip-rule="evenodd" d="M31 15.5C31 24.0604 24.0604 31 15.5 31C6.93959 31 0 24.0604 0 15.5C0 6.93959 6.93959 0 15.5 0C24.0604 0 31 6.93959 31 15.5ZM17.2222 25.8333C17.2222 26.7845 16.4512 27.5556 15.5 27.5556C14.5488 27.5556 13.7778 26.7845 13.7778 25.8333C13.7778 24.8822 14.5488 24.1111 15.5 24.1111C16.4512 24.1111 17.2222 24.8822 17.2222 25.8333ZM15.5 4.16667C12.0942 4.16667 9.33333 6.92758 9.33333 10.3333H11.3333C11.3333 8.03215 13.1988 6.16667 15.5 6.16667H15.6624C17.8739 6.16667 19.6667 7.95943 19.6667 10.1709V11.0547C19.6667 12.2505 18.9015 13.3121 17.7671 13.6902C15.816 14.3406 14.5 16.1665 14.5 18.2231V22.3889H16.5V18.2231C16.5 17.0273 17.2652 15.9657 18.3996 15.5876C20.3506 14.9372 21.6667 13.1113 21.6667 11.0547V10.1709C21.6667 6.85486 18.9785 4.16667 15.6624 4.16667H15.5Z" fill="#FB4242"/>
</svg>
