<svg width="18" height="18" viewBox="0 0 18 18" fill="none" xmlns="http://www.w3.org/2000/svg">
<circle cx="9" cy="9" r="9" fill="#D9D9D9"/>
<path fill-rule="evenodd" clip-rule="evenodd" d="M9 18C13.9706 18 18 13.9706 18 9C18 4.02944 13.9706 0 9 0C4.02944 0 0 4.02944 0 9C0 13.9706 4.02944 18 9 18ZM6.34488 13.0189L6.5251 10.4839L11.1679 6.31519C11.3699 6.1363 11.1243 6.03734 10.8541 6.2162L5.11465 9.80752L2.64365 9.03901C2.10623 8.87243 2.09613 8.50469 2.7558 8.24865L12.4208 4.54829C12.8683 4.38171 13.2597 4.64728 13.114 5.32645L13.1135 5.3269L11.4693 13.0316C11.3453 13.5755 11.0217 13.7103 10.5623 13.4543L8.05725 11.6198L6.84827 12.7751C6.71441 12.9082 6.60267 13.0189 6.34488 13.0189Z" fill="#27AAE1"/>
</svg>
