<svg width="40" height="41" viewBox="0 0 40 41" fill="none" xmlns="http://www.w3.org/2000/svg">
<g clip-path="url(#clip0_38_263)">
<rect x="0.5" y="1" width="39" height="39" rx="19.5" fill="#111111" stroke="white"/>
<path d="M29.9686 15.776C29.2787 15.776 28.5955 15.6402 27.9581 15.3762C27.3208 15.1121 26.7416 14.7252 26.2538 14.2373C25.7659 13.7495 25.3789 13.1704 25.1149 12.533C24.8509 11.8956 24.715 11.2124 24.715 10.5225H20.9617V25.2199C20.961 25.89 20.7494 26.5429 20.3569 27.086C19.9644 27.6291 19.4109 28.0349 18.7749 28.2459C18.1389 28.4569 17.4527 28.4623 16.8134 28.2615C16.1741 28.0607 15.6142 27.6637 15.2132 27.1269C14.8121 26.5901 14.5901 25.9407 14.5787 25.2707C14.5673 24.6008 14.7671 23.9442 15.1497 23.3941C15.5323 22.844 16.0784 22.4282 16.7105 22.2058C17.3426 21.9833 18.0286 21.9655 18.6714 22.1547V18.5062C17.3053 18.322 15.9156 18.559 14.6877 19.1854C13.4598 19.8119 12.4523 20.798 11.7996 22.0121C11.147 23.2263 10.8802 24.6106 11.0351 25.9803C11.1899 27.3501 11.7589 28.6399 12.6661 29.6778C13.5733 30.7156 14.7755 31.4519 16.1123 31.7885C17.449 32.125 18.8566 32.0458 20.1471 31.5613C21.4376 31.0768 22.5495 30.2102 23.3345 29.0771C24.1195 27.944 24.5401 26.5984 24.5402 25.2199L24.6491 17.7908C26.1912 18.9229 28.0551 19.5321 29.9682 19.5292L29.9686 15.776Z" fill="url(#paint0_linear_38_263)"/>
<path d="M28.9762 14.7536C27.5829 14.7535 26.2467 14.2 25.2615 13.2148C24.2763 12.2296 23.7228 10.8933 23.7229 9.5H19.9695V24.1974C19.9688 24.8675 19.7572 25.5203 19.3648 26.0635C18.9723 26.6066 18.4188 27.0124 17.7828 27.2234C17.1468 27.4344 16.4605 27.4399 15.8212 27.2391C15.182 27.0382 14.6221 26.6413 14.221 26.1045C13.8199 25.5677 13.5979 24.9183 13.5865 24.2483C13.5751 23.5783 13.7749 22.9217 14.1575 22.3716C14.5401 21.8215 15.0862 21.4058 15.7183 21.1833C16.3504 20.9609 17.0364 20.943 17.6792 21.1323V17.4837C16.3132 17.2995 14.9234 17.5364 13.6955 18.1629C12.4677 18.7893 11.4601 19.7755 10.8074 20.9896C10.1548 22.2037 9.88805 23.5881 10.0429 24.9578C10.1977 26.3275 10.7667 27.6174 11.6739 28.6552C12.5811 29.693 13.7834 30.4294 15.1201 30.766C16.4568 31.1025 17.8644 31.0233 19.1549 30.5388C20.4454 30.0543 21.5574 29.1876 22.3424 28.0545C23.1273 26.9214 23.5479 25.5758 23.548 24.1974L23.6575 16.7683C25.1997 17.9004 27.0635 18.5096 28.9766 18.5067L28.9762 14.7536Z" fill="url(#paint1_linear_38_263)"/>
<path d="M28.9763 15.6821C27.6777 15.4322 26.5211 14.7018 25.7374 13.6366C24.7468 12.8613 24.0674 11.7563 23.8226 10.5225H20.9618V25.2199C20.9618 25.9175 20.7335 26.5958 20.3118 27.1515C19.8901 27.7071 19.2981 28.1095 18.6263 28.2972C17.9545 28.4849 17.2398 28.4476 16.5911 28.1911C15.9425 27.9345 15.3956 27.4727 15.034 26.8763C14.3909 26.4577 13.9199 25.8217 13.707 25.0845C13.4942 24.3473 13.5537 23.5581 13.8747 22.8612C14.1957 22.1642 14.7567 21.6061 15.4553 21.2886C16.1538 20.9712 16.9433 20.9157 17.6794 21.1323V18.4474C16.4168 18.4637 15.1839 18.8325 14.1198 19.5124C13.0558 20.1922 12.2029 21.1559 11.6575 22.2948C11.1122 23.4336 10.896 24.7022 11.0334 25.9574C11.1708 27.2126 11.6563 28.4044 12.4352 29.3983C13.4239 30.2233 14.6274 30.7494 15.9045 30.9148C17.1816 31.0803 18.4794 30.8782 19.6458 30.3324C20.8122 29.7865 21.7988 28.9195 22.4899 27.8329C23.1811 26.7463 23.5482 25.4852 23.5482 24.1974L23.6576 16.7684C25.1998 17.9005 27.0636 18.5096 28.9767 18.5067L28.9763 15.6821Z" fill="url(#paint2_linear_38_263)"/>
</g>
<defs>
<linearGradient id="paint0_linear_38_263" x1="12.4964" y1="29.5288" x2="28.1089" y2="13.9163" gradientUnits="userSpaceOnUse">
<stop stop-color="#B5053C"/>
<stop offset="0.233" stop-color="#C90441"/>
<stop offset="0.737" stop-color="#F0014B"/>
<stop offset="1" stop-color="#FF004F"/>
</linearGradient>
<linearGradient id="paint1_linear_38_263" x1="11.2716" y1="28.7386" x2="27.7173" y2="12.293" gradientUnits="userSpaceOnUse">
<stop stop-color="#00B2C9"/>
<stop offset="0.283" stop-color="#00C8D4"/>
<stop offset="0.741" stop-color="#00E6E4"/>
<stop offset="1" stop-color="#00F1EA"/>
</linearGradient>
<linearGradient id="paint2_linear_38_263" x1="2.05811" y1="38.9597" x2="38.4608" y2="2.55711" gradientUnits="userSpaceOnUse">
<stop stop-color="#DDE3E4"/>
<stop offset="1" stop-color="#FCF7F7"/>
</linearGradient>
<clipPath id="clip0_38_263">
<rect width="40" height="40" fill="white" transform="translate(0 0.5)"/>
</clipPath>
</defs>
</svg>
