<svg width="18" height="18" viewBox="0 0 18 18" fill="none" xmlns="http://www.w3.org/2000/svg">
<circle cx="9" cy="9" r="9" fill="#D9D9D9"/>
<path fill-rule="evenodd" clip-rule="evenodd" d="M9 18C13.9706 18 18 13.9706 18 9C18 4.02944 13.9706 0 9 0C4.02944 0 0 4.02944 0 9C0 13.9706 4.02944 18 9 18ZM12.5902 5.38495C13.3092 6.03214 13.7079 7.46296 13.4386 9.72947C13.203 11.7289 11.8551 12.0832 11.4025 12.2022C11.358 12.2138 11.3222 12.2233 11.2969 12.2317C11.1747 12.2723 10.0992 12.5506 8.69882 12.4291L8.55933 12.5959C7.84663 13.4485 7.7238 13.5954 7.47024 13.5133C7.23483 13.4392 7.24879 13.0707 7.24879 13.0707L7.25062 12.1609H7.24879C5.20262 11.5653 5.23127 9.36959 5.25534 8.19744C5.27938 7.02559 5.499 6.07914 6.12247 5.43417C7.5109 4.11578 11.4301 4.2793 12.5905 5.3846L12.5902 5.38495ZM7.67478 13.1812C7.9505 12.8943 8.83683 11.7891 8.83683 11.7891C10.0244 11.8684 10.9702 11.6251 11.0721 11.5913C11.0958 11.5834 11.1301 11.5751 11.1727 11.5648C11.5581 11.4718 12.629 11.2132 12.8271 9.56283C12.8269 9.55464 12.8298 9.52564 12.8344 9.47895V9.47894L12.8345 9.4787L12.8345 9.47859L12.8345 9.47853C12.8816 9.00345 13.1095 6.70572 12.1355 5.84219C11.2601 5.01939 7.82417 4.76405 6.60612 5.90616C6.07812 6.44572 5.89909 7.24713 5.88029 8.22564L5.87813 8.32989C5.85668 9.33105 5.81898 11.0906 7.49393 11.5706C7.49393 11.5706 7.48723 12.9593 7.48723 13.0808C7.48565 13.2659 7.58453 13.2745 7.67478 13.1812ZM9.32721 6.12085C9.18243 6.12085 9.18243 6.34643 9.32721 6.34836C10.4505 6.35699 11.3756 7.13992 11.3858 8.57601C11.3858 8.72758 11.6076 8.72575 11.6057 8.57418H11.6054C11.5933 7.02673 10.5832 6.12948 9.32721 6.12085ZM11.0248 8.34316C11.0228 8.49475 10.8014 8.48759 10.8047 8.33794C10.822 7.5907 10.3705 7.0055 9.51303 6.94051C9.3686 6.92996 9.38367 6.70245 9.52845 6.713C10.5171 6.78708 11.0431 7.4899 11.0248 8.34316ZM10.5678 9.30851C10.3821 9.20101 10.1928 9.26792 10.1146 9.37359L9.95111 9.58531C9.86793 9.69281 9.71267 9.6786 9.71267 9.6786C8.5792 9.37884 8.27613 8.19275 8.27613 8.19275C8.27613 8.19275 8.26217 8.03218 8.36601 7.94606L8.57055 7.77686C8.67284 7.6957 8.73757 7.50013 8.63336 7.308C8.42356 6.92889 8.26569 6.73708 8.15993 6.60859C8.12541 6.56664 8.09645 6.53145 8.07304 6.49869C7.97308 6.37346 7.82259 6.34528 7.66615 6.42982H7.66274C7.33748 6.62015 6.98134 6.97627 7.09538 7.34297C7.12907 7.40997 7.16765 7.50238 7.21435 7.61424L7.21435 7.61425C7.43706 8.14768 7.84435 9.12324 8.78568 9.89287C9.32082 10.3333 10.1677 10.7845 10.5272 10.8887L10.5306 10.894C10.8848 11.012 11.2293 10.642 11.4132 10.3069V10.3044C11.4948 10.1422 11.4677 9.98881 11.3484 9.88838C11.1371 9.68236 10.8182 9.45485 10.5678 9.30851ZM10.2388 8.14993C10.2199 7.76222 10.0447 7.57337 9.68332 7.55233C9.53706 7.54371 9.55057 7.3162 9.69535 7.32482C10.1707 7.35117 10.4347 7.63321 10.4587 8.13937C10.4655 8.29095 10.2456 8.3014 10.2388 8.14993Z" fill="#7300A7"/>
</svg>
