<svg width="18" height="18" viewBox="0 0 18 18" fill="none" xmlns="http://www.w3.org/2000/svg">
<path fill-rule="evenodd" clip-rule="evenodd" d="M12.47 0.69369C10.8797 1.05272 9.682 2.51522 9.682 4.2659C9.682 4.30384 9.69082 4.34831 9.69229 4.386C12.2067 4.93874 13.475 6.68942 13.475 8.99987C13.475 11.595 11.4207 13.6997 8.90974 13.6997C6.39899 13.6997 4.05331 11.5344 4.05331 8.32402C4.05331 4.40459 7.30375 0.728111 11.9358 0.611533C12.0193 0.609523 12.1516 0.612789 12.2868 0.61907C11.2689 0.219338 10.1603 0 9.00061 0C4.03005 0 0 4.02948 0 8.99987C0 13.9708 4.03005 18 9.00061 18C13.9704 18 18 13.9708 18 8.99987C18 5.25958 15.7175 2.05142 12.47 0.69369Z" fill="#ED1B2D"/>
</svg>
