<svg width="24" height="25" viewBox="0 0 24 25" fill="none" xmlns="http://www.w3.org/2000/svg">
<path fill-rule="evenodd" clip-rule="evenodd" d="M11.9999 0.500244C12.8685 0.500244 13.5789 1.24223 13.5789 2.14941V8.27989C13.5789 9.18707 12.8685 9.92905 11.9999 9.92905C11.1313 9.92905 10.4209 9.18707 10.4209 8.27989V2.14941C10.4209 1.24223 11.1313 0.500244 11.9999 0.500244Z" fill="white"/>
<path fill-rule="evenodd" clip-rule="evenodd" d="M0.0768678 9.54781C0.345353 8.68494 1.24075 8.20848 2.06657 8.4889L7.64909 10.3834C8.47525 10.6638 8.93143 11.5986 8.66295 12.4615C8.39446 13.324 7.49906 13.8005 6.67324 13.5204L1.09073 11.6259C0.264909 11.3455 -0.191278 10.4103 0.0768678 9.54781Z" fill="white"/>
<path fill-rule="evenodd" clip-rule="evenodd" d="M4.63116 24.1867C3.92856 23.6535 3.7714 22.6169 4.2819 21.8831L7.73215 16.9232C8.24264 16.1894 9.23512 16.0252 9.93773 16.5584C10.6403 17.0916 10.7975 18.1282 10.287 18.862L6.83674 23.8219C6.32625 24.5557 5.33377 24.7199 4.63116 24.1867Z" fill="white"/>
<path fill-rule="evenodd" clip-rule="evenodd" d="M19.3689 24.1863C18.6663 24.7195 17.6738 24.5554 17.1633 23.8215L13.713 18.8616C13.2026 18.1278 13.3597 17.0912 14.0623 16.5584C14.7649 16.0252 15.7574 16.1894 16.2679 16.9232L19.7181 21.8827C20.2286 22.6166 20.0715 23.6531 19.3689 24.1863Z" fill="white"/>
<path fill-rule="evenodd" clip-rule="evenodd" d="M23.9229 9.54781C24.191 10.4103 23.7348 11.3455 22.909 11.6259L17.3265 13.5201C16.5003 13.8005 15.6053 13.324 15.3368 12.4615C15.0683 11.5986 15.5245 10.6634 16.3507 10.3834L21.9332 8.4889C22.759 8.20848 23.6544 8.68494 23.9229 9.54781Z" fill="white"/>
</svg>
