<svg width="24" height="24" viewBox="0 0 24 24" fill="none" xmlns="http://www.w3.org/2000/svg">
<path fill-rule="evenodd" clip-rule="evenodd" d="M12 24C18.6274 24 24 18.6274 24 12C24 5.37258 18.6274 0 12 0C5.37258 0 0 5.37258 0 12C0 18.6274 5.37258 24 12 24ZM8.45984 17.3585L8.70014 13.9786L14.8905 8.42026C15.1599 8.18174 14.8324 8.04978 14.4721 8.28827L6.81953 13.0767L3.52486 12.052C2.80831 11.8299 2.79484 11.3396 3.6744 10.9982L16.5611 6.06439C17.1578 5.84228 17.6796 6.19638 17.4853 7.10193L17.4847 7.10254L15.2924 17.3755C15.1271 18.1006 14.6955 18.2805 14.083 17.9391L10.743 15.4931L9.13103 17.0335C8.95254 17.2109 8.80357 17.3585 8.45984 17.3585Z" fill="white"/>
</svg>
