<svg width="24" height="25" viewBox="0 0 24 25" fill="none" xmlns="http://www.w3.org/2000/svg">
<path fill-rule="evenodd" clip-rule="evenodd" d="M16.6267 1.42492C14.5063 1.90363 12.9093 3.85363 12.9093 6.18787C12.9093 6.23845 12.9211 6.29775 12.923 6.348C16.2756 7.08498 17.9666 9.41922 17.9666 12.4998C17.9666 15.96 15.2277 18.7662 11.8797 18.7662C8.53198 18.7662 5.40442 15.8793 5.40442 11.5987C5.40442 6.37278 9.73833 1.47081 15.9144 1.31538C16.0258 1.3127 16.2021 1.31705 16.3824 1.32543C15.0252 0.79245 13.5471 0.5 12.0008 0.5C5.37339 0.5 0 5.87264 0 12.4998C0 19.1277 5.37339 24.5 12.0008 24.5C18.6273 24.5 24 19.1277 24 12.4998C24 7.51277 20.9567 3.23523 16.6267 1.42492Z" fill="white"/>
</svg>
