<svg width="24" height="25" viewBox="0 0 24 25" fill="none" xmlns="http://www.w3.org/2000/svg">
<path fill-rule="evenodd" clip-rule="evenodd" d="M12 24.5C18.6274 24.5 24 19.1274 24 12.5C24 5.87258 18.6274 0.5 12 0.5C5.37258 0.5 0 5.87258 0 12.5C0 19.1274 5.37258 24.5 12 24.5ZM16.7869 7.67994C17.7456 8.54285 18.2772 10.4506 17.9181 13.4726C17.604 16.1385 15.8068 16.6109 15.2033 16.7696C15.144 16.7851 15.0963 16.7977 15.0626 16.809C14.8997 16.8631 13.4656 17.2341 11.5984 17.0721L11.4124 17.2945C10.4622 18.4313 10.2984 18.6272 9.96031 18.5177C9.64644 18.4189 9.66505 17.9276 9.66505 17.9276L9.6675 16.7146H9.66505C6.93683 15.9204 6.97503 12.9928 7.00712 11.4299C7.03918 9.86746 7.332 8.60553 8.16329 7.74556C10.0145 5.98771 15.2401 6.20573 16.7874 7.67947L16.7869 7.67994ZM10.233 18.075C10.6007 17.6924 11.7824 16.2188 11.7824 16.2188C13.3658 16.3246 14.6269 16.0002 14.7628 15.955C14.7944 15.9445 14.84 15.9335 14.8967 15.9198L14.8967 15.9198L14.8968 15.9198L14.8969 15.9198L14.8969 15.9198C15.4107 15.7957 16.8387 15.451 17.1028 13.2504C17.1026 13.2395 17.1064 13.2006 17.1126 13.138C17.1755 12.5046 17.4794 9.44096 16.1807 8.28958C15.0135 7.19252 10.4322 6.85206 8.80816 8.37488C8.10416 9.0943 7.86546 10.1628 7.84039 11.4675L7.83751 11.6065C7.80891 12.9414 7.75865 15.2875 9.9919 15.9275C9.9919 15.9275 9.98297 17.7791 9.98297 17.941C9.98087 18.1878 10.1127 18.1993 10.233 18.075ZM12.4363 8.66146C12.2432 8.66146 12.2432 8.96224 12.4363 8.96481C13.934 8.97631 15.1674 10.0202 15.181 11.935C15.181 12.1371 15.4768 12.1347 15.4743 11.9326H15.4738C15.4578 9.8693 14.111 8.67296 12.4363 8.66146ZM14.6997 11.6245C14.6971 11.8267 14.4018 11.8171 14.4063 11.6176C14.4294 10.6213 13.8273 9.84099 12.684 9.75434C12.4915 9.74027 12.5116 9.43692 12.7046 9.451C14.0228 9.54977 14.7242 10.4869 14.6997 11.6245ZM14.0904 12.9113C13.8428 12.7679 13.5905 12.8572 13.4862 12.998L13.2681 13.2803C13.1572 13.4237 12.9502 13.4047 12.9502 13.4047C11.4389 13.005 11.0348 11.4236 11.0348 11.4236C11.0348 11.4236 11.0162 11.2095 11.1547 11.0947L11.4274 10.8691C11.5638 10.7609 11.6501 10.5001 11.5111 10.2439C11.2314 9.73844 11.0209 9.48269 10.8799 9.31137C10.8339 9.25544 10.7953 9.20852 10.7641 9.16484C10.6308 8.99787 10.4301 8.9603 10.2215 9.07302H10.217C9.78331 9.32679 9.30845 9.80161 9.4605 10.2905C9.50542 10.3799 9.55687 10.5031 9.61914 10.6523C9.91608 11.3635 10.4591 12.6642 11.7142 13.6904C12.4278 14.2776 13.5569 14.8793 14.0363 15.0182L14.0408 15.0252C14.5131 15.1826 14.9723 14.6893 15.2176 14.2425V14.2391C15.3264 14.0229 15.2903 13.8183 15.1313 13.6844C14.8495 13.4097 14.4243 13.1064 14.0904 12.9113ZM13.6517 11.3667C13.6266 10.8498 13.3929 10.598 12.9111 10.5699C12.7161 10.5584 12.7341 10.2551 12.9271 10.2666C13.561 10.3017 13.9129 10.6778 13.945 11.3527C13.954 11.5548 13.6608 11.5687 13.6517 11.3667Z" fill="white"/>
</svg>
