<svg width="31" height="31" viewBox="0 0 31 31" fill="none" xmlns="http://www.w3.org/2000/svg">
<path fill-rule="evenodd" clip-rule="evenodd" d="M18.7801 1.80097V1.80099L18.8747 2.7472C19.0381 4.38074 19.1198 5.1975 19.6726 5.42649C20.2254 5.65547 20.8607 5.13568 22.1313 4.09611L22.8672 3.49397C23.533 2.94925 23.8659 2.6769 24.2507 2.69609C24.6355 2.71529 24.9397 3.01941 25.5479 3.62767L27.3723 5.45204L27.3723 5.45205C27.9805 6.0603 28.2847 6.36442 28.3039 6.74925C28.323 7.13409 28.0507 7.46697 27.506 8.13273L26.9038 8.86872C25.8642 10.1393 25.3444 10.7746 25.5734 11.3274C25.8024 11.8802 26.6192 11.9619 28.2527 12.1253L29.199 12.2199C30.0549 12.3055 30.4829 12.3483 30.7415 12.634C31 12.9197 31 13.3498 31 14.21V16.79C31 17.6502 31 18.0803 30.7415 18.366C30.4829 18.6517 30.0549 18.6945 29.199 18.7801H29.199L28.2533 18.8747C26.6198 19.038 25.803 19.1197 25.574 19.6725C25.345 20.2253 25.8648 20.8606 26.9044 22.1312L27.506 22.8666C28.0508 23.5323 28.3231 23.8652 28.3039 24.2501C28.2847 24.6349 27.9806 24.939 27.3723 25.5473L25.548 27.3716C24.9397 27.9799 24.6356 28.284 24.2508 28.3032C23.8659 28.3224 23.533 28.0501 22.8673 27.5053L22.1313 26.9032C20.8607 25.8636 20.2254 25.3438 19.6726 25.5728C19.1198 25.8018 19.0381 26.6186 18.8748 28.2521L18.7801 29.199V29.199C18.6945 30.0549 18.6517 30.4829 18.366 30.7415C18.0803 31 17.6502 31 16.79 31H14.21C13.3498 31 12.9197 31 12.634 30.7415C12.3483 30.4829 12.3055 30.0549 12.2199 29.199L12.1253 28.2527C11.9619 26.6192 11.8802 25.8024 11.3274 25.5734C10.7746 25.3444 10.1393 25.8642 8.86872 26.9038L8.13266 27.506C7.4669 28.0508 7.13402 28.3231 6.74919 28.3039C6.36435 28.2847 6.06023 27.9806 5.45198 27.3724L5.45197 27.3723L3.6276 25.548C3.01935 24.9397 2.71522 24.6356 2.69602 24.2508C2.67683 23.8659 2.94919 23.533 3.4939 22.8673L4.0961 22.1313C5.13567 20.8607 5.65546 20.2254 5.42648 19.6726C5.19749 19.1197 4.38073 19.0381 2.74719 18.8747L1.80099 18.7801C0.945061 18.6945 0.517095 18.6517 0.258547 18.366C0 18.0803 0 17.6502 0 16.79V14.21C0 13.3498 0 12.9197 0.258547 12.634C0.517095 12.3483 0.945061 12.3055 1.80099 12.2199L2.74777 12.1252C4.38131 11.9619 5.19808 11.8802 5.42706 11.3274C5.65604 10.7746 5.13625 10.1393 4.09668 8.86867L3.49397 8.13202C2.94926 7.46627 2.6769 7.13339 2.69609 6.74855C2.71529 6.36372 3.01941 6.05959 3.62767 5.45134L5.45204 3.62697C6.06029 3.01871 6.36442 2.71458 6.74925 2.69539C7.13409 2.6762 7.46697 2.94855 8.13273 3.49326L8.86879 4.0955C10.1394 5.13508 10.7747 5.65486 11.3275 5.42588C11.8803 5.1969 11.962 4.38013 12.1253 2.74659L12.2199 1.80099C12.3055 0.945061 12.3483 0.517095 12.634 0.258547C12.9197 0 13.3498 0 14.21 0H16.79C17.6502 0 18.0803 0 18.366 0.258547C18.6517 0.517093 18.6945 0.945054 18.7801 1.80097ZM15.5 21.7C18.9242 21.7 21.7 18.9242 21.7 15.5C21.7 12.0758 18.9242 9.3 15.5 9.3C12.0758 9.3 9.3 12.0758 9.3 15.5C9.3 18.9242 12.0758 21.7 15.5 21.7Z" fill="#FB4242"/>
</svg>
