<svg width="116" height="79" viewBox="0 0 116 79" fill="none" xmlns="http://www.w3.org/2000/svg">
<path fill-rule="evenodd" clip-rule="evenodd" d="M13.5439 43.0042H16.4241V67.6192L23.64 78.3863V78.9503L13.5439 68.6508V43.0042Z" fill="#E6E6E6"/>
<path fill-rule="evenodd" clip-rule="evenodd" d="M14.3907 43.0049V68.0389L23.6402 78.9504L13.5439 68.6514V43.0049H14.3907Z" fill="#808080"/>
<path fill-rule="evenodd" clip-rule="evenodd" d="M16.4161 43.0061V67.6817L23.6402 78.3878L15.5693 67.6817V43.0061H16.4161Z" fill="#808080"/>
<path fill-rule="evenodd" clip-rule="evenodd" d="M15.5693 43.0029V67.6837L22.2539 76.5485L15.1299 67.711V43.0029H15.5693Z" fill="white"/>
<path fill-rule="evenodd" clip-rule="evenodd" d="M75.8154 6.02135C74.1529 6.02135 72.8047 4.67231 72.8047 3.01067C72.8047 1.34904 74.1529 0 75.8154 0H106.018C108.666 0 111.204 1.05164 113.076 2.92363C114.949 4.79561 116 7.33466 116 9.98209V9.98235C116 12.6298 114.949 15.1688 113.076 17.0408C111.204 18.9128 108.666 19.9644 106.018 19.9644H90.9905C88.2979 19.9644 86.1145 22.1478 86.1145 24.8411V41.7558C86.1145 43.4175 84.7649 44.7665 83.1038 44.7665C81.4414 44.7665 80.0932 43.4175 80.0932 41.7558V24.8411C80.0932 18.8223 84.9718 13.9431 90.9905 13.9431H106.018C107.069 13.9431 108.075 13.5259 108.819 12.7831C109.561 12.0403 109.979 11.0328 109.979 9.98235V9.98209C109.979 8.93162 109.561 7.92423 108.819 7.18138C108.075 6.43865 107.069 6.02135 106.018 6.02135H75.8154Z" fill="white"/>
<path fill-rule="evenodd" clip-rule="evenodd" d="M3.01067 6.02135C1.34826 6.02135 0 4.67231 0 3.01067C0 1.34904 1.34826 0 3.01067 0H37.9005C40.5486 0 43.088 1.05164 44.9599 2.92363C46.8317 4.79561 47.8829 7.33466 47.8829 9.98209V9.98235C47.8829 12.6298 46.8317 15.1688 44.9599 17.0408C43.088 18.9128 40.5486 19.9644 37.9005 19.9644H22.8733C20.1807 19.9644 17.9973 22.1478 17.9973 24.8411V41.7558C17.9973 43.4175 16.6478 44.7665 14.9866 44.7665C13.3255 44.7665 11.976 43.4175 11.976 41.7558V24.8411C11.976 18.8223 16.8546 13.9431 22.8733 13.9431H37.9005C38.9516 13.9431 39.9582 13.5259 40.7017 12.7831C41.4439 12.0403 41.8615 11.0328 41.8615 9.98235V9.98209C41.8615 8.93162 41.4439 7.92423 40.7017 7.18138C39.9582 6.43865 38.9516 6.02135 37.9005 6.02135H3.01067Z" fill="#ED1B24"/>
<path fill-rule="evenodd" clip-rule="evenodd" d="M92.4384 30.9646C91.1844 29.8745 91.0509 27.9712 92.1413 26.7172C93.2317 25.4632 95.1349 25.3302 96.3889 26.4205L111.415 39.4837C112.669 40.5738 112.802 42.4771 111.712 43.7311C110.622 44.9851 108.718 45.1181 107.464 44.0278L92.4384 30.9646Z" fill="white"/>
<path fill-rule="evenodd" clip-rule="evenodd" d="M69.8658 38.7452C71.5282 38.7452 72.8765 40.0942 72.8765 41.7558C72.8765 43.4175 71.5282 44.7665 69.8658 44.7665H40.4345C37.7864 44.7665 35.2483 43.7147 33.3751 41.8427C31.5033 39.9708 30.4521 37.4317 30.4521 34.7844V34.784C30.4521 32.1366 31.5033 29.5977 33.3751 27.7256C35.2483 25.8536 37.7864 24.8019 40.4345 24.8019H52.7757C54.781 24.8019 56.7039 24.0052 58.1229 22.587C59.5405 21.1688 60.3377 19.2453 60.3377 17.2396V3.01067C60.3377 1.34904 61.6873 0 63.3484 0C65.0095 0 66.359 1.34904 66.359 3.01067V17.2396C66.359 20.8422 64.9283 24.2973 62.381 26.8447C59.8324 29.3922 56.378 30.8233 52.7757 30.8233H40.4345C39.3833 30.8233 38.3754 31.2406 37.6332 31.9833C36.891 32.7262 36.4735 33.7336 36.4735 34.784V34.7844C36.4735 35.8349 36.891 36.8423 37.6332 37.585C38.3754 38.3279 39.3833 38.7452 40.4345 38.7452H69.8658Z" fill="white"/>
<path d="M30.4521 57.0469H35.468C36.304 57.0469 36.9111 57.2223 37.2893 57.5729C37.6674 57.9235 37.8566 58.4863 37.8566 59.2614V60.3686C37.8566 61.1437 37.6674 61.7066 37.2893 62.0572C36.9111 62.4079 36.304 62.5831 35.468 62.5831H32.6018V64.7976H30.4521V57.0469ZM35.7068 59.2614C35.7068 58.8186 35.468 58.597 34.9903 58.597H32.6018V61.033H34.9903C35.468 61.033 35.7068 60.8116 35.7068 60.3686V59.2614Z" fill="white"/>
<path d="M45.7387 57.0469C46.6383 57.0469 47.321 57.2629 47.7867 57.6947C48.2525 58.1265 48.4854 58.7595 48.4854 59.5935V62.251C48.4854 63.0851 48.2525 63.718 47.7867 64.1499C47.321 64.5818 46.6383 64.7976 45.7387 64.7976H41.0811V57.0469H45.7387ZM46.3358 59.5935C46.3358 58.9292 45.9775 58.597 45.2609 58.597H43.2307V63.2475H45.2609C45.9775 63.2475 46.3358 62.9153 46.3358 62.251V59.5935Z" fill="white"/>
<path d="M51.8291 57.0469H56.845C57.681 57.0469 58.288 57.2223 58.6662 57.5729C59.0444 57.9235 59.2335 58.4863 59.2335 59.2614V60.258C59.2335 60.8706 59.124 61.3468 58.9051 61.6862C58.6861 62.0258 58.3377 62.251 57.8601 62.3617L59.3529 64.7976H57.0241L55.6507 62.4724H53.9787V64.7976H51.8291V57.0469ZM57.0838 59.2614C57.0838 58.8186 56.845 58.597 56.3673 58.597H53.9787V60.9223H56.3673C56.845 60.9223 57.0838 60.7008 57.0838 60.258V59.2614Z" fill="white"/>
<path d="M64.3693 63.1367H62.2197V64.7975H64.3693V63.1367Z" fill="white"/>
<path d="M69.7434 64.7976H67.5938V57.0469H69.7434V60.0918H70.8183L72.6812 57.0469H74.9504L72.6096 60.8669L74.9385 64.7976H72.6693L70.8183 61.642H69.7434V64.7976Z" fill="white"/>
<path d="M85.1014 64.7976H82.9518V61.642H79.9661V64.7976H77.8164V57.0469H79.9661V60.0918H82.9518V57.0469H85.1014V64.7976Z" fill="white"/>
<path d="M90.4758 63.1367H88.3262V64.7975H90.4758V63.1367Z" fill="white"/>
<path d="M99.0744 57.0469H101.224V62.6939C101.224 63.469 101.035 64.0317 100.657 64.3824C100.279 64.733 99.6716 64.9084 98.8356 64.9084H96.0887C95.2527 64.9084 94.6456 64.733 94.2674 64.3824C93.8894 64.0317 93.7002 63.469 93.7002 62.6939V57.0469H95.8499V62.6939C95.8499 63.1368 96.0887 63.3582 96.5665 63.3582H98.3578C98.8355 63.3582 99.0744 63.1368 99.0744 62.6939V57.0469Z" fill="white"/>
<path d="M106.061 64.7976H103.732L106.897 57.0469H109.286L112.451 64.7976H110.122L109.584 63.4135H106.599L106.061 64.7976ZM107.136 61.9741H109.047L108.091 59.3721L107.136 61.9741Z" fill="white"/>
<path d="M111.957 67.5872H30.4521V68.4507H111.957V67.5872Z" fill="white"/>
<path d="M112.45 53.5042H30.9453V54.3677H112.45V53.5042Z" fill="white"/>
</svg>
