<svg width="72" height="49" viewBox="0 0 72 49" fill="none" xmlns="http://www.w3.org/2000/svg">
<path fill-rule="evenodd" clip-rule="evenodd" d="M8.40625 26.6924H10.1939V41.9707L14.6728 48.6537V49.0038L8.40625 42.611V26.6924Z" fill="#E6E6E6"/>
<path fill-rule="evenodd" clip-rule="evenodd" d="M8.93182 26.6926V42.231L14.6729 49.0036L8.40625 42.6112V26.6926H8.93182Z" fill="#808080"/>
<path fill-rule="evenodd" clip-rule="evenodd" d="M10.1887 26.6934V42.0092L14.6726 48.6544L9.66309 42.0092V26.6934H10.1887Z" fill="#808080"/>
<path fill-rule="evenodd" clip-rule="evenodd" d="M9.6634 26.6914V42.0105L13.8124 47.5128L9.39062 42.0274V26.6914H9.6634Z" fill="white"/>
<path fill-rule="evenodd" clip-rule="evenodd" d="M47.0581 3.73739C46.0263 3.73739 45.1895 2.90005 45.1895 1.86869C45.1895 0.837338 46.0263 0 47.0581 0H65.8044C67.448 0 69.0235 0.652745 70.1853 1.81467C71.348 2.97659 72.0004 4.55255 72.0004 6.19578V6.19594C72.0004 7.83918 71.348 9.41513 70.1853 10.5771C69.0235 11.739 67.448 12.3917 65.8044 12.3917H56.4772C54.8059 12.3917 53.4507 13.7469 53.4507 15.4186V25.9174C53.4507 26.9488 52.6131 27.7861 51.582 27.7861C50.5502 27.7861 49.7133 26.9488 49.7133 25.9174V15.4186C49.7133 11.6828 52.7414 8.65433 56.4772 8.65433H65.8044C66.4568 8.65433 67.0816 8.3954 67.5431 7.93432C68.0038 7.47332 68.263 6.84795 68.263 6.19594V6.19578C68.263 5.54377 68.0038 4.91849 67.5431 4.45741C67.0816 3.99641 66.4568 3.73739 65.8044 3.73739H47.0581Z" fill="black"/>
<path fill-rule="evenodd" clip-rule="evenodd" d="M1.86869 3.73739C0.83685 3.73739 0 2.90005 0 1.86869C0 0.837338 0.83685 0 1.86869 0H23.5244C25.1681 0 26.7443 0.652745 27.9061 1.81467C29.068 2.97659 29.7204 4.55255 29.7204 6.19578V6.19594C29.7204 7.83918 29.068 9.41513 27.9061 10.5771C26.7443 11.739 25.1681 12.3917 23.5244 12.3917H14.1972C12.526 12.3917 11.1707 13.7469 11.1707 15.4186V25.9174C11.1707 26.9488 10.3331 27.7861 9.30205 27.7861C8.27102 27.7861 7.43336 26.9488 7.43336 25.9174V15.4186C7.43336 11.6828 10.4615 8.65433 14.1972 8.65433H23.5244C24.1768 8.65433 24.8016 8.3954 25.2631 7.93432C25.7238 7.47332 25.983 6.84795 25.983 6.19594V6.19578C25.983 5.54377 25.7238 4.91849 25.2631 4.45741C24.8016 3.99641 24.1768 3.73739 23.5244 3.73739H1.86869Z" fill="#ED1B24"/>
<path fill-rule="evenodd" clip-rule="evenodd" d="M57.3759 19.2193C56.5975 18.5427 56.5147 17.3613 57.1915 16.583C57.8683 15.8046 59.0496 15.7221 59.8279 16.3988L69.1543 24.507C69.9327 25.1836 70.0156 26.365 69.3388 27.1433C68.662 27.9217 67.4807 28.0042 66.7023 27.3275L57.3759 19.2193Z" fill="black"/>
<path fill-rule="evenodd" clip-rule="evenodd" d="M43.365 24.0487C44.3969 24.0487 45.2337 24.8861 45.2337 25.9174C45.2337 26.9488 44.3969 27.7861 43.365 27.7861H25.0973C23.4536 27.7861 21.8783 27.1333 20.7156 25.9714C19.5538 24.8094 18.9014 23.2335 18.9014 21.5903V21.5901C18.9014 19.9469 19.5538 18.371 20.7156 17.209C21.8783 16.0471 23.4536 15.3943 25.0973 15.3943H32.7573C34.002 15.3943 35.1956 14.8998 36.0763 14.0195C36.9562 13.1393 37.451 11.9453 37.451 10.7005V1.86869C37.451 0.837338 38.2887 0 39.3197 0C40.3507 0 41.1884 0.837338 41.1884 1.86869V10.7005C41.1884 12.9366 40.3003 15.0811 38.7193 16.6623C37.1374 18.2434 34.9933 19.1317 32.7573 19.1317H25.0973C24.4449 19.1317 23.8193 19.3907 23.3586 19.8517C22.8979 20.3128 22.6388 20.9381 22.6388 21.5901V21.5903C22.6388 22.2423 22.8979 22.8676 23.3586 23.3286C23.8193 23.7897 24.4449 24.0487 25.0973 24.0487H43.365Z" fill="black"/>
<path d="M18.9014 35.4084H22.0147C22.5336 35.4084 22.9104 35.5173 23.1451 35.7349C23.3798 35.9526 23.4972 36.3019 23.4972 36.783V37.4702C23.4972 37.9513 23.3798 38.3007 23.1451 38.5183C22.9104 38.736 22.5336 38.8447 22.0147 38.8447H20.2356V40.2193H18.9014V35.4084ZM22.1629 36.783C22.1629 36.5081 22.0147 36.3706 21.7182 36.3706H20.2356V37.8826H21.7182C22.0147 37.8826 22.1629 37.7451 22.1629 37.4702V36.783Z" fill="black"/>
<path d="M28.39 35.4084C28.9483 35.4084 29.3721 35.5425 29.6612 35.8106C29.9503 36.0785 30.0948 36.4714 30.0948 36.9891V38.6386C30.0948 39.1563 29.9503 39.5492 29.6612 39.8172C29.3721 40.0853 28.9483 40.2193 28.39 40.2193H25.499V35.4084H28.39ZM28.7606 36.9891C28.7606 36.5768 28.5382 36.3706 28.0934 36.3706H26.8333V39.2571H28.0934C28.5382 39.2571 28.7606 39.0509 28.7606 38.6386V36.9891Z" fill="black"/>
<path d="M32.1699 35.4084H35.2832C35.8021 35.4084 36.1789 35.5173 36.4136 35.7349C36.6484 35.9526 36.7658 36.3019 36.7658 36.783V37.4015C36.7658 37.7818 36.6978 38.0773 36.5619 38.288C36.426 38.4988 36.2098 38.6386 35.9133 38.7073L36.8398 40.2193H35.3944L34.542 38.776H33.5042V40.2193H32.1699V35.4084ZM35.4315 36.783C35.4315 36.5081 35.2832 36.3706 34.9867 36.3706H33.5042V37.8139H34.9867C35.2832 37.8139 35.4315 37.6764 35.4315 37.4015V36.783Z" fill="black"/>
<path d="M39.9534 39.188H38.6191V40.2188H39.9534V39.188Z" fill="black"/>
<path d="M43.2893 40.2193H41.9551V35.4084H43.2893V37.2984H43.9565L45.1128 35.4084H46.5213L45.0684 37.7795L46.5139 40.2193H45.1054L43.9565 38.2606H43.2893V40.2193Z" fill="black"/>
<path d="M52.8215 40.2193H51.4873V38.2606H49.6341V40.2193H48.2998V35.4084H49.6341V37.2984H51.4873V35.4084H52.8215V40.2193Z" fill="black"/>
<path d="M56.1575 39.188H54.8232V40.2188H56.1575V39.188Z" fill="black"/>
<path d="M61.4949 35.4084H62.8292V38.9135C62.8292 39.3946 62.7118 39.7439 62.477 39.9615C62.2424 40.1792 61.8655 40.288 61.3466 40.288H59.6417C59.1228 40.288 58.746 40.1792 58.5113 39.9615C58.2766 39.7439 58.1592 39.3946 58.1592 38.9135V35.4084H59.4935V38.9135C59.4935 39.1884 59.6417 39.3258 59.9382 39.3258H61.0501C61.3466 39.3258 61.4949 39.1884 61.4949 38.9135V35.4084Z" fill="black"/>
<path d="M65.8313 40.2193H64.3857L66.3501 35.4084H67.8326L69.7971 40.2193H68.3515L68.0179 39.3602H66.1648L65.8313 40.2193ZM66.4984 38.4667H67.6844L67.0913 36.8517L66.4984 38.4667Z" fill="black"/>
<path d="M69.4907 41.9504H18.9014V42.4864H69.4907V41.9504Z" fill="black"/>
<path d="M69.7964 33.2097H19.207V33.7457H69.7964V33.2097Z" fill="black"/>
</svg>
